<?xml version="1.0" encoding="utf-8" standalone="no"?>
<!DOCTYPE svg PUBLIC "-//W3C//DTD SVG 1.1//EN"
  "http://www.w3.org/Graphics/SVG/1.1/DTD/svg11.dtd">
<svg role="img" aria-labelledby="title desc" xmlns:xlink="http://www.w3.org/1999/xlink" width="1120" height="620" viewBox="0 0 806.4 446.4" xmlns="http://www.w3.org/2000/svg" version="1.1">
<title id="title">不同结构假设下的吞吐：共同比较区间 B ≤ 350</title>
<desc id="desc">固定接受率和简化执行模型下的四条吞吐曲线，仅绘制 B 不超过 350 的共同区间；外部 draft 的持续 KV 与权重降低可容纳并发，曲线不包含真实服务测量。</desc>
 <metadata>
  <rdf:RDF xmlns:dc="http://purl.org/dc/elements/1.1/" xmlns:cc="http://creativecommons.org/ns#" xmlns:rdf="http://www.w3.org/1999/02/22-rdf-syntax-ns#">
   <cc:Work>
    <dc:type rdf:resource="http://purl.org/dc/dcmitype/StillImage"/>
    <dc:format>image/svg+xml</dc:format>
    <dc:creator>
     <cc:Agent>
      <dc:title>generate_inference_figures.py</dc:title>
     </cc:Agent>
    </dc:creator>
   </cc:Work>
  </rdf:RDF>
 </metadata>
 <defs>
  <style type="text/css">*{stroke-linejoin: round; stroke-linecap: butt}</style>
 </defs>
 <g id="figure_1">
  <g id="patch_1">
   <path d="M 0 446.4
L 806.4 446.4
L 806.4 0
L 0 0
z
" style="fill: #fbfcfe"/>
  </g>
  <g id="axes_1">
   <g id="patch_2">
    <path d="M 80.64 339.264
L 774.144 339.264
L 774.144 98.208
L 80.64 98.208
z
" style="fill: #fbfcfe"/>
   </g>
   <g id="matplotlib.axis_1">
    <g id="xtick_1">
     <g id="line2d_1">
      <defs>
       <path id="m4ab17bad40" d="M 0 0
L 0 3.5
" style="stroke: #64748b; stroke-width: 0.8"/>
      </defs>
      <g>
       <use xlink:href="#m4ab17bad40" x="80.64" y="339.264" style="fill: #64748b; stroke: #64748b; stroke-width: 0.8"/>
      </g>
     </g>
     <g id="text_1">
      <text style="font-size: 12px; font-family: -apple-system, BlinkMacSystemFont, 'PingFang SC', 'Microsoft YaHei', sans-serif; text-anchor: middle; fill: #64748b" x="80.64" y="355.404625" transform="rotate(-0 80.64 355.404625)">0</text>
     </g>
    </g>
    <g id="xtick_2">
     <g id="line2d_2">
      <g>
       <use xlink:href="#m4ab17bad40" x="179.712" y="339.264" style="fill: #64748b; stroke: #64748b; stroke-width: 0.8"/>
      </g>
     </g>
     <g id="text_2">
      <text style="font-size: 12px; font-family: -apple-system, BlinkMacSystemFont, 'PingFang SC', 'Microsoft YaHei', sans-serif; text-anchor: middle; fill: #64748b" x="179.712" y="355.404625" transform="rotate(-0 179.712 355.404625)">50</text>
     </g>
    </g>
    <g id="xtick_3">
     <g id="line2d_3">
      <g>
       <use xlink:href="#m4ab17bad40" x="278.784" y="339.264" style="fill: #64748b; stroke: #64748b; stroke-width: 0.8"/>
      </g>
     </g>
     <g id="text_3">
      <text style="font-size: 12px; font-family: -apple-system, BlinkMacSystemFont, 'PingFang SC', 'Microsoft YaHei', sans-serif; text-anchor: middle; fill: #64748b" x="278.784" y="355.404625" transform="rotate(-0 278.784 355.404625)">100</text>
     </g>
    </g>
    <g id="xtick_4">
     <g id="line2d_4">
      <g>
       <use xlink:href="#m4ab17bad40" x="377.856" y="339.264" style="fill: #64748b; stroke: #64748b; stroke-width: 0.8"/>
      </g>
     </g>
     <g id="text_4">
      <text style="font-size: 12px; font-family: -apple-system, BlinkMacSystemFont, 'PingFang SC', 'Microsoft YaHei', sans-serif; text-anchor: middle; fill: #64748b" x="377.856" y="355.404625" transform="rotate(-0 377.856 355.404625)">150</text>
     </g>
    </g>
    <g id="xtick_5">
     <g id="line2d_5">
      <g>
       <use xlink:href="#m4ab17bad40" x="476.928" y="339.264" style="fill: #64748b; stroke: #64748b; stroke-width: 0.8"/>
      </g>
     </g>
     <g id="text_5">
      <text style="font-size: 12px; font-family: -apple-system, BlinkMacSystemFont, 'PingFang SC', 'Microsoft YaHei', sans-serif; text-anchor: middle; fill: #64748b" x="476.928" y="355.404625" transform="rotate(-0 476.928 355.404625)">200</text>
     </g>
    </g>
    <g id="xtick_6">
     <g id="line2d_6">
      <g>
       <use xlink:href="#m4ab17bad40" x="576" y="339.264" style="fill: #64748b; stroke: #64748b; stroke-width: 0.8"/>
      </g>
     </g>
     <g id="text_6">
      <text style="font-size: 12px; font-family: -apple-system, BlinkMacSystemFont, 'PingFang SC', 'Microsoft YaHei', sans-serif; text-anchor: middle; fill: #64748b" x="576" y="355.404625" transform="rotate(-0 576 355.404625)">250</text>
     </g>
    </g>
    <g id="xtick_7">
     <g id="line2d_7">
      <g>
       <use xlink:href="#m4ab17bad40" x="675.072" y="339.264" style="fill: #64748b; stroke: #64748b; stroke-width: 0.8"/>
      </g>
     </g>
     <g id="text_7">
      <text style="font-size: 12px; font-family: -apple-system, BlinkMacSystemFont, 'PingFang SC', 'Microsoft YaHei', sans-serif; text-anchor: middle; fill: #64748b" x="675.072" y="355.404625" transform="rotate(-0 675.072 355.404625)">300</text>
     </g>
    </g>
    <g id="xtick_8">
     <g id="line2d_8">
      <g>
       <use xlink:href="#m4ab17bad40" x="774.144" y="339.264" style="fill: #64748b; stroke: #64748b; stroke-width: 0.8"/>
      </g>
     </g>
     <g id="text_8">
      <text style="font-size: 12px; font-family: -apple-system, BlinkMacSystemFont, 'PingFang SC', 'Microsoft YaHei', sans-serif; text-anchor: middle; fill: #64748b" x="774.144" y="355.404625" transform="rotate(-0 774.144 355.404625)">350</text>
     </g>
    </g>
    <g id="text_9">
     <text style="font-size: 12px; font-family: -apple-system, BlinkMacSystemFont, 'PingFang SC', 'Microsoft YaHei', sans-serif; text-anchor: middle; fill: #344054" x="427.392" y="371.404625" transform="rotate(-0 427.392 371.404625)">并发 B</text>
    </g>
   </g>
   <g id="matplotlib.axis_2">
    <g id="ytick_1">
     <g id="line2d_9">
      <path d="M 80.64 339.264
L 774.144 339.264
" clip-path="url(#pdf39726b14)" style="fill: none; stroke-dasharray: 3.2,4; stroke-dashoffset: 0; stroke: #dce3ea; stroke-width: 0.8"/>
     </g>
     <g id="line2d_10">
      <defs>
       <path id="m89075c0011" d="M 0 0
L -3.5 0
" style="stroke: #64748b; stroke-width: 0.8"/>
      </defs>
      <g>
       <use xlink:href="#m89075c0011" x="80.64" y="339.264" style="fill: #64748b; stroke: #64748b; stroke-width: 0.8"/>
      </g>
     </g>
     <g id="text_10">
      <text style="font-size: 12px; font-family: -apple-system, BlinkMacSystemFont, 'PingFang SC', 'Microsoft YaHei', sans-serif; text-anchor: end; fill: #64748b" x="73.64" y="343.834313" transform="rotate(-0 73.64 343.834313)">0</text>
     </g>
    </g>
    <g id="ytick_2">
     <g id="line2d_11">
      <path d="M 80.64 309.132
L 774.144 309.132
" clip-path="url(#pdf39726b14)" style="fill: none; stroke-dasharray: 3.2,4; stroke-dashoffset: 0; stroke: #dce3ea; stroke-width: 0.8"/>
     </g>
     <g id="line2d_12">
      <g>
       <use xlink:href="#m89075c0011" x="80.64" y="309.132" style="fill: #64748b; stroke: #64748b; stroke-width: 0.8"/>
      </g>
     </g>
     <g id="text_11">
      <text style="font-size: 12px; font-family: -apple-system, BlinkMacSystemFont, 'PingFang SC', 'Microsoft YaHei', sans-serif; text-anchor: end; fill: #64748b" x="73.64" y="313.702313" transform="rotate(-0 73.64 313.702313)">5</text>
     </g>
    </g>
    <g id="ytick_3">
     <g id="line2d_13">
      <path d="M 80.64 279
L 774.144 279
" clip-path="url(#pdf39726b14)" style="fill: none; stroke-dasharray: 3.2,4; stroke-dashoffset: 0; stroke: #dce3ea; stroke-width: 0.8"/>
     </g>
     <g id="line2d_14">
      <g>
       <use xlink:href="#m89075c0011" x="80.64" y="279" style="fill: #64748b; stroke: #64748b; stroke-width: 0.8"/>
      </g>
     </g>
     <g id="text_12">
      <text style="font-size: 12px; font-family: -apple-system, BlinkMacSystemFont, 'PingFang SC', 'Microsoft YaHei', sans-serif; text-anchor: end; fill: #64748b" x="73.64" y="283.570312" transform="rotate(-0 73.64 283.570312)">10</text>
     </g>
    </g>
    <g id="ytick_4">
     <g id="line2d_15">
      <path d="M 80.64 248.868
L 774.144 248.868
" clip-path="url(#pdf39726b14)" style="fill: none; stroke-dasharray: 3.2,4; stroke-dashoffset: 0; stroke: #dce3ea; stroke-width: 0.8"/>
     </g>
     <g id="line2d_16">
      <g>
       <use xlink:href="#m89075c0011" x="80.64" y="248.868" style="fill: #64748b; stroke: #64748b; stroke-width: 0.8"/>
      </g>
     </g>
     <g id="text_13">
      <text style="font-size: 12px; font-family: -apple-system, BlinkMacSystemFont, 'PingFang SC', 'Microsoft YaHei', sans-serif; text-anchor: end; fill: #64748b" x="73.64" y="253.438312" transform="rotate(-0 73.64 253.438312)">15</text>
     </g>
    </g>
    <g id="ytick_5">
     <g id="line2d_17">
      <path d="M 80.64 218.736
L 774.144 218.736
" clip-path="url(#pdf39726b14)" style="fill: none; stroke-dasharray: 3.2,4; stroke-dashoffset: 0; stroke: #dce3ea; stroke-width: 0.8"/>
     </g>
     <g id="line2d_18">
      <g>
       <use xlink:href="#m89075c0011" x="80.64" y="218.736" style="fill: #64748b; stroke: #64748b; stroke-width: 0.8"/>
      </g>
     </g>
     <g id="text_14">
      <text style="font-size: 12px; font-family: -apple-system, BlinkMacSystemFont, 'PingFang SC', 'Microsoft YaHei', sans-serif; text-anchor: end; fill: #64748b" x="73.64" y="223.306312" transform="rotate(-0 73.64 223.306312)">20</text>
     </g>
    </g>
    <g id="ytick_6">
     <g id="line2d_19">
      <path d="M 80.64 188.604
L 774.144 188.604
" clip-path="url(#pdf39726b14)" style="fill: none; stroke-dasharray: 3.2,4; stroke-dashoffset: 0; stroke: #dce3ea; stroke-width: 0.8"/>
     </g>
     <g id="line2d_20">
      <g>
       <use xlink:href="#m89075c0011" x="80.64" y="188.604" style="fill: #64748b; stroke: #64748b; stroke-width: 0.8"/>
      </g>
     </g>
     <g id="text_15">
      <text style="font-size: 12px; font-family: -apple-system, BlinkMacSystemFont, 'PingFang SC', 'Microsoft YaHei', sans-serif; text-anchor: end; fill: #64748b" x="73.64" y="193.174312" transform="rotate(-0 73.64 193.174312)">25</text>
     </g>
    </g>
    <g id="ytick_7">
     <g id="line2d_21">
      <path d="M 80.64 158.472
L 774.144 158.472
" clip-path="url(#pdf39726b14)" style="fill: none; stroke-dasharray: 3.2,4; stroke-dashoffset: 0; stroke: #dce3ea; stroke-width: 0.8"/>
     </g>
     <g id="line2d_22">
      <g>
       <use xlink:href="#m89075c0011" x="80.64" y="158.472" style="fill: #64748b; stroke: #64748b; stroke-width: 0.8"/>
      </g>
     </g>
     <g id="text_16">
      <text style="font-size: 12px; font-family: -apple-system, BlinkMacSystemFont, 'PingFang SC', 'Microsoft YaHei', sans-serif; text-anchor: end; fill: #64748b" x="73.64" y="163.042312" transform="rotate(-0 73.64 163.042312)">30</text>
     </g>
    </g>
    <g id="ytick_8">
     <g id="line2d_23">
      <path d="M 80.64 128.34
L 774.144 128.34
" clip-path="url(#pdf39726b14)" style="fill: none; stroke-dasharray: 3.2,4; stroke-dashoffset: 0; stroke: #dce3ea; stroke-width: 0.8"/>
     </g>
     <g id="line2d_24">
      <g>
       <use xlink:href="#m89075c0011" x="80.64" y="128.34" style="fill: #64748b; stroke: #64748b; stroke-width: 0.8"/>
      </g>
     </g>
     <g id="text_17">
      <text style="font-size: 12px; font-family: -apple-system, BlinkMacSystemFont, 'PingFang SC', 'Microsoft YaHei', sans-serif; text-anchor: end; fill: #64748b" x="73.64" y="132.910312" transform="rotate(-0 73.64 132.910312)">35</text>
     </g>
    </g>
    <g id="ytick_9">
     <g id="line2d_25">
      <path d="M 80.64 98.208
L 774.144 98.208
" clip-path="url(#pdf39726b14)" style="fill: none; stroke-dasharray: 3.2,4; stroke-dashoffset: 0; stroke: #dce3ea; stroke-width: 0.8"/>
     </g>
     <g id="line2d_26">
      <g>
       <use xlink:href="#m89075c0011" x="80.64" y="98.208" style="fill: #64748b; stroke: #64748b; stroke-width: 0.8"/>
      </g>
     </g>
     <g id="text_18">
      <text style="font-size: 12px; font-family: -apple-system, BlinkMacSystemFont, 'PingFang SC', 'Microsoft YaHei', sans-serif; text-anchor: end; fill: #64748b" x="73.64" y="102.778312" transform="rotate(-0 73.64 102.778312)">40</text>
     </g>
    </g>
    <g id="text_19">
     <text style="font-size: 12px; font-family: -apple-system, BlinkMacSystemFont, 'PingFang SC', 'Microsoft YaHei', sans-serif; text-anchor: middle; fill: #344054" x="53.561875" y="218.736" transform="rotate(-90 53.561875 218.736)">吞吐估算（k tok/s）</text>
    </g>
   </g>
   <g id="line2d_27">
    <path d="M 82.62144 337.369402
L 86.58432 333.772975
L 90.5472 330.412494
L 94.51008 327.265479
L 100.4544 322.902733
L 106.39872 318.91952
L 112.34304 315.26838
L 118.28736 311.909447
L 124.23168 308.808992
L 130.176 305.938286
L 136.12032 303.272702
L 144.04608 300.001401
L 151.97184 297.014652
L 159.8976 294.276877
L 167.82336 291.758189
L 177.73056 288.879766
L 187.63776 286.263088
L 197.54496 283.874006
L 209.4336 281.2678
L 221.32224 278.907907
L 233.21088 276.760985
L 247.08096 274.488875
L 260.95104 272.433201
L 276.80256 270.311258
L 294.63552 268.17157
L 312.46848 266.254546
L 332.28288 264.345707
L 354.07872 262.473307
L 377.856 260.658783
L 403.61472 258.917477
L 431.35488 257.259556
L 463.05792 255.593103
L 496.7424 254.042182
L 534.38976 252.527776
L 576 251.07278
L 623.55456 249.636701
L 677.05344 248.25193
L 736.49664 246.939933
L 774.144 246.209294
L 774.144 246.209294
" clip-path="url(#pdf39726b14)" style="fill: none; stroke: #2563eb; stroke-width: 2.7; stroke-linecap: square"/>
   </g>
   <g id="line2d_28">
    <path d="M 82.62144 335.45604
L 86.58432 328.300373
L 90.5472 321.69896
L 94.51008 315.589806
L 98.47296 309.919829
L 102.43584 304.643315
L 106.39872 299.720682
L 110.3616 295.117483
L 114.32448 290.803603
L 118.28736 286.752598
L 122.25024 282.941149
L 126.21312 279.348617
L 132.15744 274.330735
L 138.10176 269.710878
L 144.04608 265.443494
L 149.9904 261.489727
L 155.93472 257.816232
L 161.87904 254.394225
L 167.82336 251.198737
L 173.76768 248.207997
L 181.69344 244.50622
L 189.6192 241.095802
L 197.54496 237.943647
L 205.47072 235.021489
L 213.39648 232.30504
L 223.30368 229.167062
L 233.21088 226.28288
L 243.11808 223.622901
L 255.00672 220.691704
L 266.89536 218.010606
L 278.784 215.548908
L 292.65408 212.919933
L 306.52416 210.520073
L 322.37568 208.021329
L 328.32 207.626843
L 352.09728 206.366172
L 379.83744 205.125501
L 411.54048 203.941079
L 447.2064 202.834921
L 488.81664 201.771954
L 536.3712 200.7801
L 593.83296 199.813281
L 661.20192 198.911487
L 742.44096 198.057603
L 774.144 197.776391
L 774.144 197.776391
" clip-path="url(#pdf39726b14)" style="fill: none; stroke: #f97316; stroke-width: 2.7; stroke-linecap: square"/>
   </g>
   <g id="line2d_29">
    <path d="M 82.62144 334.69906
L 86.58432 325.94618
L 90.5472 317.662298
L 94.51008 309.810702
L 98.47296 302.358416
L 102.43584 295.275734
L 106.39872 288.535823
L 110.3616 282.11439
L 114.32448 275.989381
L 120.2688 267.314269
L 126.21312 259.200944
L 132.15744 251.596549
L 138.10176 244.454654
L 144.04608 237.734309
L 149.9904 231.399261
L 155.93472 225.4173
L 161.87904 219.759705
L 167.82336 214.400791
L 173.76768 209.317513
L 179.712 204.489139
L 185.65632 199.896965
L 191.60064 195.524071
L 199.5264 190.008341
L 207.45216 184.822766
L 215.37792 179.938565
L 223.30368 175.330206
L 231.22944 170.974964
L 239.1552 166.852543
L 247.08096 162.944758
L 256.98816 158.337128
L 266.89536 154.01105
L 276.80256 149.94148
L 286.70976 146.106264
L 296.61696 142.485722
L 308.5056 138.399891
L 320.39424 134.571229
L 322.37568 133.956426
L 324.35712 133.672982
L 344.17152 132.066268
L 365.96736 130.533575
L 389.74464 129.087569
L 417.4848 127.638757
L 447.2064 126.312509
L 480.89088 125.031958
L 520.51968 123.761476
L 564.11136 122.591324
L 615.6288 121.442029
L 675.072 120.352314
L 742.44096 119.344338
L 774.144 118.935127
L 774.144 118.935127
" clip-path="url(#pdf39726b14)" style="fill: none; stroke: #7c3aed; stroke-width: 2.7; stroke-linecap: square"/>
   </g>
   <g id="line2d_30">
    <path d="M 82.62144 333.696338
L 86.58432 323.020824
L 88.56576 317.900485
L 90.5472 314.294512
L 92.52864 313.196899
L 94.51008 312.351894
L 96.49152 311.681292
L 100.4544 310.684273
L 104.41728 309.978562
L 110.3616 309.237118
L 118.28736 308.582989
L 128.19456 308.051777
L 142.06464 307.581078
L 161.87904 307.176423
L 191.60064 306.832476
L 237.17376 306.553455
L 316.43136 306.321503
L 465.03936 306.142174
L 774.144 306.014169
L 774.144 306.014169
" clip-path="url(#pdf39726b14)" style="fill: none; stroke: #64748b; stroke-width: 2.7; stroke-linecap: square"/>
   </g>
   <g id="line2d_31">
    <path d="M 207.45216 339.264
L 207.45216 98.208
" clip-path="url(#pdf39726b14)" style="fill: none; stroke-dasharray: 3.7,1.6; stroke-dashoffset: 0; stroke: #64748b"/>
   </g>
   <g id="patch_3">
    <path d="M 80.64 339.264
L 80.64 98.208
" style="fill: none; stroke: #64748b; stroke-width: 0.8; stroke-linejoin: miter; stroke-linecap: square"/>
   </g>
   <g id="patch_4">
    <path d="M 80.64 339.264
L 774.144 339.264
" style="fill: none; stroke: #64748b; stroke-width: 0.8; stroke-linejoin: miter; stroke-linecap: square"/>
   </g>
   <g id="text_20">
    <text style="font-size: 10px; font-family: -apple-system, BlinkMacSystemFont, 'PingFang SC', 'Microsoft YaHei', sans-serif; text-anchor: start; fill: #64748b" x="215.37792" y="116.2872" transform="rotate(-0 215.37792 116.2872)">B=64</text>
   </g>
   <g id="legend_1">
    <g id="line2d_32">
     <path d="M 90.09 58.948727
L 100.59 58.948727
L 111.09 58.948727
" style="fill: none; stroke: #2563eb; stroke-width: 2.7; stroke-linecap: square"/>
    </g>
    <g id="text_21">
     <text style="font-size: 10.5px; font-family: -apple-system, BlinkMacSystemFont, 'PingFang SC', 'Microsoft YaHei', sans-serif; text-anchor: start; fill: #344054" x="119.49" y="62.623727" transform="rotate(-0 119.49 62.623727)">普通 Decode</text>
    </g>
    <g id="line2d_33">
     <path d="M 90.09 74.698727
L 100.59 74.698727
L 111.09 74.698727
" style="fill: none; stroke: #f97316; stroke-width: 2.7; stroke-linecap: square"/>
    </g>
    <g id="text_22">
     <text style="font-size: 10.5px; font-family: -apple-system, BlinkMacSystemFont, 'PingFang SC', 'Microsoft YaHei', sans-serif; text-anchor: start; fill: #344054" x="119.49" y="78.373727" transform="rotate(-0 119.49 78.373727)">外部 1B + 四步链</text>
    </g>
    <g id="line2d_34">
     <path d="M 219.322031 58.948727
L 229.822031 58.948727
L 240.322031 58.948727
" style="fill: none; stroke: #7c3aed; stroke-width: 2.7; stroke-linecap: square"/>
    </g>
    <g id="text_23">
     <text style="font-size: 10.5px; font-family: -apple-system, BlinkMacSystemFont, 'PingFang SC', 'Microsoft YaHei', sans-serif; text-anchor: start; fill: #344054" x="248.722031" y="62.623727" transform="rotate(-0 248.722031 62.623727)">单层 draft + 四步链</text>
    </g>
    <g id="line2d_35">
     <path d="M 219.322031 74.698727
L 229.822031 74.698727
L 240.322031 74.698727
" style="fill: none; stroke: #64748b; stroke-width: 2.7; stroke-linecap: square"/>
    </g>
    <g id="text_24">
     <text style="font-size: 10.5px; font-family: -apple-system, BlinkMacSystemFont, 'PingFang SC', 'Microsoft YaHei', sans-serif; text-anchor: start; fill: #344054" x="248.722031" y="78.373727" transform="rotate(-0 248.722031 78.373727)">单层 draft + 45 行树</text>
    </g>
   </g>
  </g>
  <g id="text_25">
   <text style="font-size: 18px; font-family: -apple-system, BlinkMacSystemFont, 'PingFang SC', 'Microsoft YaHei', sans-serif; text-anchor: start; fill: #344054" x="44.352" y="31.248" transform="rotate(-0 44.352 31.248)">不同结构假设下的吞吐：共同比较区间 B ≤ 350</text>
  </g>
  <g id="text_26">
   <text style="font-size: 10.5px; font-family: -apple-system, BlinkMacSystemFont, 'PingFang SC', 'Microsoft YaHei', sans-serif; text-anchor: start; fill: #64748b" x="44.352" y="392.832" transform="rotate(-0 44.352 392.832)">链 E[N]=3.3616，树 E[N]=4.1；相同接受率仅是比较假设，曲线不是论文实测。</text>
  </g>
  <g id="text_27">
   <text style="font-size: 10.5px; font-family: -apple-system, BlinkMacSystemFont, 'PingFang SC', 'Microsoft YaHei', sans-serif; text-anchor: start; fill: #64748b" x="44.352" y="412.4736" transform="rotate(-0 44.352 412.4736)">外部 draft 在 120 GB KV 预算下最多 350 路（含 draft 权重与持久 KV；额外临时状态另计）。</text>
  </g>
  <g id="text_28">
   <text style="font-size: 10.5px; font-family: -apple-system, BlinkMacSystemFont, 'PingFang SC', 'Microsoft YaHei', sans-serif; text-anchor: start; fill: #64748b" x="44.352" y="432.1152" transform="rotate(-0 44.352 432.1152)">渐近吞吐仅用于分析主导项，不表示有限显存内可以达到。</text>
  </g>
 </g>
 <defs>
  <clipPath id="pdf39726b14">
   <rect x="80.64" y="98.208" width="693.504" height="241.056"/>
  </clipPath>
 </defs>
</svg>
